<?xml version="1.0" standalone="no"?>
<!DOCTYPE svg PUBLIC "-//W3C//DTD SVG 20010904//EN"
 "http://www.w3.org/TR/2001/REC-SVG-20010904/DTD/svg10.dtd">
<svg version="1.0" xmlns="http://www.w3.org/2000/svg"
 width="240.000000pt" height="240.000000pt" viewBox="0 0 240.000000 240.000000"
 preserveAspectRatio="xMidYMid meet">
<metadata>
Created by potrace 1.14, written by Peter Selinger 2001-2017
</metadata>
<g transform="translate(0.000000,240.000000) scale(0.100000,-0.100000)"
fill="#000000" stroke="none">
<path d="M1130 2323 c-199 -22 -370 -79 -515 -171 -239 -153 -414 -390 -485
-657 -29 -114 -35 -162 -33 -315 1 -111 6 -153 27 -235 28 -108 67 -208 103
-267 13 -21 23 -40 23 -44 0 -19 105 -150 178 -222 159 -159 364 -265 589
-306 78 -14 310 -15 383 -1 270 51 504 187 670 391 48 58 164 243 165 263 1 3
11 33 24 65 46 122 65 234 65 386 0 119 -8 185 -34 280 -134 491 -555 820
-1068 834 -37 1 -78 0 -92 -1z"/>
</g>
</svg>
